<?xml version="1.0" encoding="UTF-8" standalone="no"?>
<!DOCTYPE svg PUBLIC "-//W3C//DTD SVG 1.1//EN" "http://www.w3.org/Graphics/SVG/1.1/DTD/svg11.dtd">
<svg width="100%" height="100%" viewBox="0 0 4289 2408" version="1.1" xmlns="http://www.w3.org/2000/svg" xmlns:xlink="http://www.w3.org/1999/xlink" xml:space="preserve" xmlns:serif="http://www.serif.com/" style="fill-rule:evenodd;clip-rule:evenodd;stroke-linejoin:round;stroke-miterlimit:2;">
    <g transform="matrix(4.162676,0,0,4.162676,1706.43898,1034.66234)">
        <path d="M-4.428,-49.682L72.72,165.96L29.52,165.96L11.52,114.84L-93.24,114.84L-111.24,165.96L-154.08,165.96L-64.44,-84.6L-21.79,-84.6L-40.69,-35.103L-40.231,-33.637L-40.68,-34.92L-81.72,81.36L0,81.36L-37.173,-24.895L-4.428,-49.682Z" style="fill:white;"/>
    </g>
    <g transform="matrix(-4.166667,0,0,4.166667,204.88375,2282.97092)">
        <path d="M-206.224,-517.906C-206.224,-517.906 -39.89,-401.969 -39.89,-258.953C-39.89,-115.937 -206.224,0 -206.224,0C-206.224,0 0,-115.937 0,-258.953C0,-401.969 -206.224,-517.906 -206.224,-517.906" style="fill:white;fill-rule:nonzero;"/>
    </g>
    <g id="Artboard1" transform="matrix(1.495467,0,0,1.606404,-1595.663529,-2851.367578)">
        <rect x="1067" y="1775" width="2868" height="1499" style="fill:none;"/>
        <g transform="matrix(2.786197,0,0,2.595029,2633.156022,2544.585948)">
            <path d="M0,-15.48L45.36,-15.48C60.716,-15.48 72.298,-19.316 80.1,-27C87.896,-34.678 91.8,-45 91.8,-57.96C91.8,-70.92 87.958,-81.056 80.28,-88.38C72.596,-95.698 60.958,-99.36 45.36,-99.36L0,-99.36L0,-15.48ZM88.92,117.36L31.32,17.28L0,17.28L0,117.36L-41.04,117.36L-41.04,-132.84L45.36,-132.84C64.558,-132.84 80.82,-129.477 94.14,-122.76C107.46,-116.038 117.416,-107.038 124.02,-95.76C130.618,-84.477 133.92,-71.876 133.92,-57.96C133.92,-41.636 129.178,-26.82 119.7,-13.5C110.216,-0.18 95.636,8.882 75.96,13.68L137.88,117.36L88.92,117.36Z" style="fill:white;fill-rule:nonzero;"/>
        </g>
        <g transform="matrix(2.786197,0,0,2.540205,3162.242342,2691.849096)">
            <path d="M0,-131.76C11.396,-151.2 26.877,-166.376 46.44,-177.3C65.998,-188.218 87.418,-193.68 110.701,-193.68C137.34,-193.68 161.039,-187.138 181.801,-174.06C202.557,-160.976 217.621,-142.436 226.98,-118.44L177.66,-118.44C171.18,-131.636 162.18,-141.48 150.66,-147.96C139.141,-154.44 125.82,-157.68 110.701,-157.68C94.141,-157.68 79.38,-153.956 66.42,-146.52C53.46,-139.078 43.318,-128.396 36,-114.48C28.677,-100.558 25.021,-84.358 25.021,-65.88C25.021,-47.396 28.677,-31.196 36,-17.28C43.318,-3.358 53.46,7.38 66.42,14.94C79.38,22.5 94.141,26.28 110.701,26.28C125.82,26.28 139.141,23.04 150.66,16.56C162.18,10.08 171.18,0.242 177.66,-12.96L226.98,-12.96C217.621,11.042 202.557,29.52 181.801,42.48C161.039,55.44 137.34,61.92 110.701,61.92C87.178,61.92 65.7,56.464 46.261,45.54C26.82,34.622 11.396,19.44 0,0C-11.401,-19.44 -17.1,-41.4 -17.1,-65.88C-17.1,-90.36 -11.401,-112.32 0,-131.76" style="fill:white;fill-rule:nonzero;"/>
        </g>
    </g>
</svg>
