<?xml version="1.0" encoding="UTF-8" standalone="no"?><!DOCTYPE svg PUBLIC "-//W3C//DTD SVG 1.1//EN" "http://www.w3.org/Graphics/SVG/1.1/DTD/svg11.dtd"><svg width="100%" height="100%" viewBox="0 0 34734 34734" version="1.1" xmlns="http://www.w3.org/2000/svg" xmlns:xlink="http://www.w3.org/1999/xlink" xml:space="preserve" xmlns:serif="http://www.serif.com/" style="fill-rule:evenodd;clip-rule:evenodd;stroke-linejoin:round;stroke-miterlimit:2;"><g><g id="Artboard1"><rect x="0.006" y="0" width="34730.732" height="34730.732" style="fill:none;"/><g><path d="M21224.944,2560.247l-2529.754,10612.867l7276.27,1355.436c283.663,52.841 519.806,248.663 624.233,517.646c104.428,268.983 62.278,572.846 -111.421,803.249l-12828.107,17015.91c-238.636,316.54 -667.229,421.16 -1024.871,250.171c-357.642,-170.989 -545.328,-570.251 -448.804,-954.736l3032.906,-12080.979l-6479.318,-1398.143c-276.851,-59.741 -504.408,-256.006 -604.161,-521.081c-99.752,-265.076 -58.043,-562.67 110.738,-790.109l11502.468,-15500.063c235.824,-317.783 662.618,-425.89 1021.288,-258.693c358.67,167.197 550.29,563.583 458.533,948.525Zm-2799.378,4556.076c22.939,-96.235 -24.966,-195.332 -114.633,-237.131c-89.668,-41.799 -196.366,-14.773 -255.322,64.673c-1665.975,2244.972 -6270.853,8450.24 -7434.234,10017.946c-59.073,79.604 -73.672,183.762 -38.758,276.538c34.913,92.776 114.558,161.469 211.456,182.378c1395.871,301.209 5615.161,1211.67 5615.161,1211.67c220.764,47.638 412.739,182.84 531.968,374.649c119.229,191.809 155.5,423.797 100.509,642.845c-0,0 -1406.806,5603.734 -1991.549,7932.941c-24.131,96.121 22.791,195.937 112.201,238.684c89.41,42.747 196.559,16.592 256.218,-62.543c1856.461,-2462.512 7332.131,-9725.743 8641.3,-11462.299c60.795,-80.641 75.547,-186.993 38.997,-281.137c-36.55,-94.144 -119.2,-162.681 -218.482,-181.176c-1533.73,-285.706 -6351.542,-1183.177 -6351.542,-1183.177c-224.358,-41.794 -421.758,-173.772 -546.122,-365.127c-124.364,-191.355 -164.808,-425.341 -111.891,-647.339c0,-0 1068.691,-4483.391 1554.722,-6522.397Z" style="fill:#1d8f82;"/></g></g></g></svg>