<svg width="119" height="193" viewBox="0 0 119 193" fill="none" xmlns="http://www.w3.org/2000/svg">
<path d="M104.633 83.804L76.7741 75.5691C74.5258 74.9045 73.0403 72.7835 73.206 70.4449C73.8875 60.8256 75.6876 35.8626 77.214 18.5983C77.6677 13.4664 76.245 10.3822 72.9257 8.78693C69.4382 7.11083 65.5799 8.17571 63.3744 11.4628C41.2483 44.4403 9.53471 97.4671 9.53471 97.4671C7.95624 99.8197 7.56617 102.898 8.49907 105.64C9.43197 108.382 11.5601 110.412 14.1493 111.03L37.5431 117.146C40.9816 118.045 43.2025 121.368 42.7105 124.888C40.7778 138.715 36.2778 171.236 36.2778 174.29C36.2778 178.18 37.1 182.669 40.4751 184.166C43.8501 185.663 47.6601 185.354 50.0598 181.578L109.429 97.4671C111.054 95.0839 111.448 91.9408 110.471 89.1585C109.495 86.3761 107.286 84.3506 104.633 83.804Z" stroke="#1D8F82" stroke-width="16"/>
</svg>
