<svg width="128" height="128" viewBox="0 0 128 128" fill="none" xmlns="http://www.w3.org/2000/svg">
<path d="M101.333 90.6659H112C115.2 90.6659 117.333 88.5326 117.333 85.3326V71.4996C117.333 66.6996 113.6 62.4329 109.333 61.3662C99.7333 58.6995 90 54.4995 90 54.4995C90 54.4995 81.4 49.0329 76.6 44.2329C73.9333 42.0995 71 41.4991 67 40.4995C67 40.4995 54.7552 38.4864 47 38.4991C39.2448 38.5117 26.6666 40.4993 26.6666 40.4993C23.4666 40.4993 20.7999 42.6326 19.1999 45.2993L9.56667 59.1C8.86043 61.1599 8.5 63.3224 8.5 65.5V85.3326C8.5 88.5326 10.6333 90.6659 13.8333 90.6659H23.5" stroke="#1D8F82" stroke-width="10" stroke-linecap="round" stroke-linejoin="round"/>
<path d="M34.6667 101.333C40.5577 101.333 45.3333 96.5577 45.3333 90.6667C45.3333 84.7756 40.5577 80 34.6667 80C28.7756 80 24 84.7756 24 90.6667C24 96.5577 28.7756 101.333 34.6667 101.333Z" stroke="#1D8F82" stroke-width="10" stroke-linecap="round" stroke-linejoin="round"/>
<path d="M48 90.667H80" stroke="#1D8F82" stroke-width="10" stroke-linecap="round" stroke-linejoin="round"/>
<path d="M90.6667 101.333C96.5577 101.333 101.333 96.5577 101.333 90.6667C101.333 84.7756 96.5577 80 90.6667 80C84.7756 80 80 84.7756 80 90.6667C80 96.5577 84.7756 101.333 90.6667 101.333Z" stroke="#1D8F82" stroke-width="10" stroke-linecap="round" stroke-linejoin="round"/>
</svg>
