<?xml version="1.0" encoding="UTF-8" standalone="no"?><!DOCTYPE svg PUBLIC "-//W3C//DTD SVG 1.1//EN" "http://www.w3.org/Graphics/SVG/1.1/DTD/svg11.dtd"><svg width="100%" height="100%" viewBox="0 0 8336 8336" version="1.1" xmlns="http://www.w3.org/2000/svg" xmlns:xlink="http://www.w3.org/1999/xlink" xml:space="preserve" xmlns:serif="http://www.serif.com/" style="fill-rule:evenodd;clip-rule:evenodd;stroke-linejoin:round;stroke-miterlimit:2;"><rect id="Artboard1" x="0" y="0" width="8335.375" height="8335.375" style="fill:none;"/><g><path d="M5032.991,599.919l-622.425,2611.206l1811.104,337.376c46.733,8.706 85.638,40.967 102.842,85.282c17.204,44.315 10.26,94.376 -18.357,132.335l-3078.746,4083.819c-39.315,52.15 -109.926,69.386 -168.847,41.216c-58.921,-28.17 -89.843,-93.949 -73.94,-157.293l743.686,-2962.325l-1618.419,-349.231c-45.611,-9.842 -83.101,-42.177 -99.535,-85.848c-16.434,-43.671 -9.563,-92.7 18.244,-130.17l2760.593,-3720.016c38.852,-52.355 109.166,-70.165 168.257,-42.62c59.091,27.546 90.66,92.85 75.543,156.269Zm-469.503,785.458c4.588,-19.247 -4.993,-39.066 -22.927,-47.426c-17.934,-8.36 -39.273,-2.955 -51.064,12.935c-423.272,570.377 -1824.333,2458.366 -2074.91,2796.029c-8.439,11.372 -10.524,26.252 -5.537,39.505c4.988,13.254 16.365,23.067 30.208,26.054c290.765,62.743 1485.735,320.6 1485.735,320.6c36.371,7.848 67.999,30.123 87.642,61.723c19.643,31.601 25.619,69.821 16.559,105.909c0,-0 -416.947,1660.827 -563.302,2243.801c-4.826,19.224 4.558,39.187 22.44,47.737c17.882,8.549 39.312,3.318 51.244,-12.509c465.491,-617.453 2099.018,-2784.253 2374.332,-3149.445c8.479,-11.246 10.536,-26.079 5.439,-39.208c-5.097,-13.13 -16.624,-22.688 -30.47,-25.267c-314.459,-58.578 -1670.463,-311.177 -1670.463,-311.177c-36.963,-6.886 -69.485,-28.629 -89.974,-60.155c-20.489,-31.526 -27.152,-70.075 -18.434,-106.649c0,0 328.841,-1379.558 453.482,-1902.457Z" style="fill:#1d8f82;"/></g></svg>