<svg xmlns="http://www.w3.org/2000/svg" xmlns:xlink="http://www.w3.org/1999/xlink" width="500" zoomAndPan="magnify" viewBox="0 0 375 374.999991" height="500" preserveAspectRatio="xMidYMid meet" version="1.0"><defs><g/></defs><g fill="#000000" fill-opacity="1"><g transform="translate(0.0000045, 207.131156)"><g><path d="M 7.8125 0 C 6.488281 0 5.5625 -0.585938 5.03125 -1.765625 C 4.53125 -2.972656 4.722656 -4.0625 5.609375 -5.03125 L 58.296875 -62.140625 L 7.8125 -62.140625 C 6.957031 -62.140625 6.242188 -62.425781 5.671875 -63 C 5.097656 -63.570312 4.8125 -64.269531 4.8125 -65.09375 C 4.8125 -65.90625 5.097656 -66.617188 5.671875 -67.234375 C 6.242188 -67.796875 6.957031 -68.078125 7.8125 -68.078125 L 65.140625 -68.078125 C 66.421875 -68.078125 67.332031 -67.488281 67.875 -66.3125 C 68.40625 -65.101562 68.222656 -64.019531 67.328125 -63.0625 L 14.59375 -5.984375 L 65.140625 -5.984375 C 65.960938 -5.984375 66.660156 -5.679688 67.234375 -5.078125 C 67.835938 -4.503906 68.140625 -3.8125 68.140625 -3 C 68.140625 -2.175781 67.835938 -1.460938 67.234375 -0.859375 C 66.660156 -0.285156 65.960938 0 65.140625 0 Z M 7.8125 0 "/></g></g></g><g fill="#000000" fill-opacity="1"><g transform="translate(72.939504, 207.131156)"><g><path d="M 64.609375 -31.078125 C 65.429688 -31.078125 66.125 -31.359375 66.6875 -31.921875 C 67.289062 -32.492188 67.59375 -33.207031 67.59375 -34.0625 C 67.59375 -34.882812 67.289062 -35.582031 66.6875 -36.15625 C 66.125 -36.726562 65.429688 -37.015625 64.609375 -37.015625 L 10.265625 -37.015625 L 10.265625 -62.140625 L 64.609375 -62.140625 C 65.429688 -62.140625 66.125 -62.425781 66.6875 -63 C 67.289062 -63.570312 67.59375 -64.269531 67.59375 -65.09375 C 67.59375 -65.90625 67.289062 -66.617188 66.6875 -67.234375 C 66.125 -67.796875 65.429688 -68.078125 64.609375 -68.078125 L 7.28125 -68.078125 C 6.457031 -68.078125 5.742188 -67.796875 5.140625 -67.234375 C 4.566406 -66.617188 4.28125 -65.90625 4.28125 -65.09375 L 4.28125 -3 C 4.28125 -2.175781 4.566406 -1.460938 5.140625 -0.859375 C 5.742188 -0.285156 6.457031 0 7.28125 0 L 64.609375 0 C 65.429688 0 66.125 -0.285156 66.6875 -0.859375 C 67.289062 -1.460938 67.59375 -2.175781 67.59375 -3 C 67.59375 -3.8125 67.289062 -4.503906 66.6875 -5.078125 C 66.125 -5.679688 65.429688 -5.984375 64.609375 -5.984375 L 10.265625 -5.984375 L 10.265625 -31.078125 Z M 64.609375 -31.078125 "/></g></g></g><g fill="#000000" fill-opacity="1"><g transform="translate(144.80951, 207.131156)"><g><path d="M 64.609375 -68.078125 C 63.785156 -68.078125 63.085938 -67.796875 62.515625 -67.234375 C 61.910156 -66.617188 61.609375 -65.90625 61.609375 -65.09375 L 61.609375 -10.75 L 45.296875 -28.875 C 44.765625 -29.488281 44.085938 -29.8125 43.265625 -29.84375 C 42.441406 -29.914062 41.726562 -29.664062 41.125 -29.09375 C 40.488281 -28.5625 40.148438 -27.882812 40.109375 -27.0625 C 40.078125 -26.207031 40.328125 -25.476562 40.859375 -24.875 L 62.359375 -0.96875 C 62.960938 -0.320312 63.710938 0 64.609375 0 C 64.960938 0 65.316406 -0.0703125 65.671875 -0.21875 C 66.953125 -0.675781 67.59375 -1.601562 67.59375 -3 L 67.59375 -65.09375 C 67.59375 -65.90625 67.289062 -66.617188 66.6875 -67.234375 C 66.125 -67.796875 65.429688 -68.078125 64.609375 -68.078125 Z M 9.46875 -67.125 C 8.570312 -68.125 7.484375 -68.375 6.203125 -67.875 C 4.921875 -67.40625 4.28125 -66.476562 4.28125 -65.09375 L 4.28125 -3 C 4.28125 -2.175781 4.566406 -1.460938 5.140625 -0.859375 C 5.742188 -0.285156 6.457031 0 7.28125 0 C 8.09375 0 8.785156 -0.285156 9.359375 -0.859375 C 9.960938 -1.460938 10.265625 -2.175781 10.265625 -3 L 10.265625 -57.328125 L 26.53125 -39.203125 C 27.101562 -38.597656 27.796875 -38.273438 28.609375 -38.234375 C 29.429688 -38.203125 30.144531 -38.453125 30.75 -38.984375 C 31.351562 -39.554688 31.691406 -40.253906 31.765625 -41.078125 C 31.804688 -41.890625 31.539062 -42.601562 30.96875 -43.21875 Z M 9.46875 -67.125 "/></g></g></g><g fill="#000000" fill-opacity="1"><g transform="translate(216.679515, 207.131156)"><g><path d="M 7.28125 0 C 6.457031 0 5.742188 -0.285156 5.140625 -0.859375 C 4.566406 -1.460938 4.28125 -2.175781 4.28125 -3 L 4.28125 -65.09375 C 4.28125 -65.90625 4.566406 -66.617188 5.140625 -67.234375 C 5.742188 -67.796875 6.457031 -68.078125 7.28125 -68.078125 C 8.09375 -68.078125 8.785156 -67.796875 9.359375 -67.234375 C 9.960938 -66.617188 10.265625 -65.90625 10.265625 -65.09375 L 10.265625 -3 C 10.265625 -2.175781 9.960938 -1.460938 9.359375 -0.859375 C 8.785156 -0.285156 8.09375 0 7.28125 0 Z M 7.28125 0 "/></g></g></g><g fill="#000000" fill-opacity="1"><g transform="translate(231.224636, 207.131156)"><g><path d="M 16.84375 -62.140625 C 15.03125 -62.140625 13.476562 -61.484375 12.1875 -60.171875 C 10.90625 -58.878906 10.265625 -57.34375 10.265625 -55.5625 L 10.265625 -12.5625 C 10.265625 -10.75 10.90625 -9.203125 12.1875 -7.921875 C 13.476562 -6.628906 15.03125 -5.984375 16.84375 -5.984375 L 55.03125 -5.984375 C 56.851562 -5.984375 58.40625 -6.628906 59.6875 -7.921875 C 60.96875 -9.203125 61.609375 -10.75 61.609375 -12.5625 L 61.609375 -55.5625 C 61.609375 -57.34375 60.96875 -58.878906 59.6875 -60.171875 C 58.40625 -61.484375 56.851562 -62.140625 55.03125 -62.140625 Z M 16.84375 0 C 13.382812 0 10.425781 -1.226562 7.96875 -3.6875 C 5.507812 -6.144531 4.28125 -9.101562 4.28125 -12.5625 L 4.28125 -55.5625 C 4.28125 -59.019531 5.507812 -61.960938 7.96875 -64.390625 C 10.425781 -66.847656 13.382812 -68.078125 16.84375 -68.078125 L 55.03125 -68.078125 C 58.488281 -68.078125 61.445312 -66.847656 63.90625 -64.390625 C 66.363281 -61.960938 67.59375 -59.019531 67.59375 -55.5625 L 67.59375 -12.5625 C 67.59375 -9.101562 66.363281 -6.144531 63.90625 -3.6875 C 61.445312 -1.226562 58.488281 0 55.03125 0 Z M 16.84375 0 "/></g></g></g><g fill="#000000" fill-opacity="1"><g transform="translate(303.094641, 207.131156)"><g><path d="M 64.609375 -68.078125 C 63.785156 -68.078125 63.085938 -67.796875 62.515625 -67.234375 C 61.910156 -66.617188 61.609375 -65.90625 61.609375 -65.09375 L 61.609375 -10.75 L 45.296875 -28.875 C 44.765625 -29.488281 44.085938 -29.8125 43.265625 -29.84375 C 42.441406 -29.914062 41.726562 -29.664062 41.125 -29.09375 C 40.488281 -28.5625 40.148438 -27.882812 40.109375 -27.0625 C 40.078125 -26.207031 40.328125 -25.476562 40.859375 -24.875 L 62.359375 -0.96875 C 62.960938 -0.320312 63.710938 0 64.609375 0 C 64.960938 0 65.316406 -0.0703125 65.671875 -0.21875 C 66.953125 -0.675781 67.59375 -1.601562 67.59375 -3 L 67.59375 -65.09375 C 67.59375 -65.90625 67.289062 -66.617188 66.6875 -67.234375 C 66.125 -67.796875 65.429688 -68.078125 64.609375 -68.078125 Z M 9.46875 -67.125 C 8.570312 -68.125 7.484375 -68.375 6.203125 -67.875 C 4.921875 -67.40625 4.28125 -66.476562 4.28125 -65.09375 L 4.28125 -3 C 4.28125 -2.175781 4.566406 -1.460938 5.140625 -0.859375 C 5.742188 -0.285156 6.457031 0 7.28125 0 C 8.09375 0 8.785156 -0.285156 9.359375 -0.859375 C 9.960938 -1.460938 10.265625 -2.175781 10.265625 -3 L 10.265625 -57.328125 L 26.53125 -39.203125 C 27.101562 -38.597656 27.796875 -38.273438 28.609375 -38.234375 C 29.429688 -38.203125 30.144531 -38.453125 30.75 -38.984375 C 31.351562 -39.554688 31.691406 -40.253906 31.765625 -41.078125 C 31.804688 -41.890625 31.539062 -42.601562 30.96875 -43.21875 Z M 9.46875 -67.125 "/></g></g></g></svg>