<svg width="96" height="178" viewBox="0 0 96 178" fill="none" xmlns="http://www.w3.org/2000/svg">
<path d="M89.4208 76L65.3168 68.2826C62.243 67.2985 60.2405 64.3403 60.4688 61.1209L64.0481 10.6438C64.468 5.5 63.0175 2.64355 60.0799 0.809742C56.9759 -0.923722 53.2824 0.197105 51.2415 3.4918L1.42053 89.6947C-0.0401137 92.0527 -0.401076 95.1381 0.462195 97.8863C1.32546 100.635 3.29476 102.669 5.69066 103.289L29.5975 110.059C31.5063 110.6 32.7308 112.457 32.4761 114.424C30.9721 126.04 26.1674 163.407 26.1674 166.695C26.1674 170.594 26.9283 175.094 30.0514 176.594C33.1746 178.094 36.7002 177.784 38.9208 174L93.8587 89.6947C95.3619 87.3059 95.7267 84.1556 94.823 81.3668C93.9192 78.5781 91.8756 76.5478 89.4208 76Z" fill="#151515"/>
</svg>
